<?xml version="1.0" encoding="UTF-8"?><svg xmlns="http://www.w3.org/2000/svg" viewBox="0 0 509.6 610.5"><defs><style>.cls-1{fill:#232121;opacity:.58;}.cls-1,.cls-2,.cls-3{stroke-width:0px;}.cls-3{fill:#f22f2f;}</style></defs><g id="Layer_3"><path class="cls-1" d="m107.6,223.7c-33.62,28.4-15.51,72.63-27.19,97.81-11.68,25.18-70.86,41.75-63.18,73.36,7.68,31.61,58.55,18.58,64.54,49.91,5.99,31.33,36.04-7.37,73.93,45.5,37.89,52.87,79.91,59.76,88.03,58.59,8.13-1.16,44.72-83.44,57.08-22.87s63.18,28.24,82.62-25.85c19.44-54.09,4.94-145.74,3.84-141.91s-8.08-21.42,27.51-22.04,87.91-71.32,64.53-87.58c-23.38-16.26-39.19,15.36-64.44-10.2-25.25-25.56.91-80.76-37.36-86.69-38.28-5.94-60.36,52.74-62.23.61-1.87-52.13-13.29-73.58-48.19-49.96-34.9,23.63-38.36,9.33-72.1-22.88-33.74-32.21-21.52-88.79-53-15.05-31.48,73.74-29.19,108.18-19.35,118.97,9.84,10.78-15.05,40.29-15.05,40.29Z"/></g><g id="Layer_2"><path class="cls-3" d="m501.1,124l-31,36s-13,15-21,16-39.03,1.97-44.01,7.98c-4.99,6.02-25.04,19.57-25.04,19.57-1.44,0-3.08.14-4.95.45-30,5-42.47-36-42.47-36,0,0,58.47-18,55.47-27s-50,1-67-15-11-48-11-48c0,0,2,23,16,34s67,14,67,14c0,0,40,14,64-11s37-41,37-41c0,0-2,23-14,35s-36,37-36,37c0,0-22,9-7,11s64-33,64-33Z"/><path class="cls-3" d="m256.1,78s4-5-5.5,14.63-94.5,44.37-104.81,46.15c-10.3,1.77,34.31,29.22,34.31,29.22,8,15-29,33-29,33,0,0-23-10-22.51-17.02.49-7.01-22.49-25.98-22.49-25.98,0,0-19-2-45-8C35.3,144.05.79,58.85.26,57.52c.8.92,52.01,60.5,73.84,63.48,22,3,30-16,46-25s13-16,13-16l-24-16s39,4,36.69,18.31c-2.3,14.3-50.69,32.69-9.29,40.41,41.41,7.71,119.6-44.72,119.6-44.72Z"/><path class="cls-2" d="m390.84,276.68c21.79-11.27,53.42,26.39,27.26,47.32-30,24-17,10-31,8s-20,21-3,20.24,9,14.76,0,16.76-16,19-16,19l4,3s4,7-9,21-21.69,66-21.69,66l-19.31,11-16.5,28.5s-30.32,34-75.16,0l-24.34-26.5-25-13s-6-60-14-69-17-16-17-16v-15.98l-20-25.02s3-10,13-10,2-24-13-14.5-62-41.5,3-56.5h18s17,27,53-2-14-64-14-64c0,0-15-2-38,10l-1-14s37-18,29-33c0,0,30.06-11,152.53,0,0,0,12.47,41,42.47,36,1.87-.31,3.51-.45,4.95-.45,19.07.02,3.05,25.45,3.05,25.45,0,0-13-19-41-15s-19,48-19,48c0,0,39,54,59,23,2.56-3.97,5.54-6.67,8.74-8.32Zm-36.74,114.32s12.61-24.42,3.31-29.21c-9.31-4.79-17.31,6.21-17.31,6.21l-6-3-8,18-6.11-16.19,2.11,24.19s-5,27-22,53c0,0,9.48-63.39-.76-77.19l-10.24,17.19-5.5-23.42-4.5,33.42-7.37-33.42-7.93,42.5-6.26-42.5-6.94,25.47-9.58-19.24-12.92,29.19s-2,28,4,47c0,0-26-36-20-66s5-26,5-26l-7,22-9-18-7,4s-6-7-16-4-12,25-12,25c0,0,8,20,16,27s6,16,6,16l10,26-2,5,15,23,28,23,7.5-3.5s18.55,13,37.77,0l6.97,2.89,21.76-27.39,20-10,11-26-4-5s20-22,17-28-3-12-3-12Zm-47-96c3-3-8-21-15.89-24-7.88-3-18.11,9-24.11,10.4-6,1.41-8-7.4-17.55-7.35s-16.45,9.95-17.45,13.95,6,10,11,19,18,8,24,3h5s6,5,17,6,15-18,18-21Z"/><path class="cls-3" d="m390.84,276.68c-3.2,1.65-6.18,4.35-8.74,8.32-20,31-59-23-59-23,0,0-9-44,19-48s41,15,41,15c0,0-9,1-12,11s-5.51,20.36,19.74,36.68Z"/><path class="cls-3" d="m291.21,271c7.89,3,18.89,21,15.89,24s-7,22-18,21-17-6-17-6h-5c-6,5-19,6-24-3s-12-15-11-19,7.9-13.9,17.45-13.95,11.55,8.76,17.55,7.35c6-1.4,16.23-13.4,24.11-10.4Z"/><path class="cls-3" d="m190.1,205s50,35,14,64-53,2-53,2h-5.31s19.31-17.76,23.31-28-17-28-17-28c23-12,38-10,38-10Z"/></g></svg>